HIERARCHY
ROOT Hips
{
	OFFSET 0.000000 0.000000 0.000000
	CHANNELS 6 Xposition Yposition Zposition Zrotation Yrotation Xrotation 
	JOINT LHipJoint
	{
		OFFSET 0.000000 0.000000 0.000000
		CHANNELS 3 Zrotation Yrotation Xrotation
		JOINT LeftUpLeg
		{
			OFFSET 1.363060 -1.794630 0.839290
			CHANNELS 3 Zrotation Yrotation Xrotation
			JOINT LeftLeg
			{
				OFFSET 2.448110 -6.726130 0.000000
				CHANNELS 3 Zrotation Yrotation Xrotation
				JOINT LeftFoot
				{
					OFFSET 2.562200 -7.039590 0.000000
					CHANNELS 3 Zrotation Yrotation Xrotation
					JOINT LeftToeBase
					{
						OFFSET 0.157640 -0.433110 2.322550
						CHANNELS 3 Zrotation Yrotation Xrotation
						End Site
						{
							OFFSET 0.000000 0.000000 0.000000
						}
					}
				}
			}
		}
	}
	JOINT RHipJoint
	{
		OFFSET 0.000000 0.000000 0.000000
		CHANNELS 3 Zrotation Yrotation Xrotation
		JOINT RightUpLeg
		{
			OFFSET -1.305520 -1.794630 0.839290
			CHANNELS 3 Zrotation Yrotation Xrotation
			JOINT RightLeg
			{
				OFFSET -2.542530 -6.985550 0.000000
				CHANNELS 3 Zrotation Yrotation Xrotation
				JOINT RightFoot
				{
					OFFSET -2.568260 -7.056230 0.000000
					CHANNELS 3 Zrotation Yrotation Xrotation
					JOINT RightToeBase
					{
						OFFSET -0.164730 -0.452590 2.363150
						CHANNELS 3 Zrotation Yrotation Xrotation
						End Site
						{
							OFFSET 0.000000 0.000000 0.000000
						}
					}
				}
			}
		}
	}
}
MOTION
Frames: 25
Frame Time: 0.008333
-21.587320 16.387023 -0.163043 9.510211 83.735030 14.879260 -9.875078 0.505783 2.724325 -14.946920 5.202398 -44.239558 -1.830854 1.184557 30.303703 2.017581 10.844573 -3.956864 1.122200 0.000000 -21.129600 9.010826 -4.788089 0.466442 4.726452 -5.621281 18.572369 1.854809 -1.442785 14.640060 0.613325 5.866898 3.551673 0.825600 -0.000000 -74.339699
-21.407494 16.408113 -0.171656 9.564545 83.581873 14.728774 -9.926312 0.564108 2.647135 -14.974458 5.602631 -43.819605 -1.771515 1.240202 31.080435 2.012939 10.927140 -3.867718 1.125200 -0.000000 -20.472500 9.088052 -4.916469 0.515349 4.165574 -5.694956 18.399992 1.701128 -1.633864 15.733630 0.658340 6.520674 5.757703 1.172801 0.000000 -76.815900
-21.227780 16.430931 -0.180952 9.620446 83.401724 14.564043 -9.975124 0.630024 2.558412 -15.022349 6.076579 -43.310916 -1.735204 1.282382 31.728335 1.990752 10.887498 -3.904470 1.088500 -0.000001 -19.781300 9.177137 -5.039451 0.563919 3.568310 -5.786117 18.104770 1.527461 -1.827006 17.009631 0.679713 7.232928 8.064960 1.606400 -0.000000 -79.032200
-21.048769 16.454909 -0.190721 9.740670 83.198553 14.446721 -10.020357 0.702059 2.456590 -15.094826 6.617302 -42.714681 -1.720443 1.311906 32.259123 1.952798 10.736004 -4.066830 1.014800 -0.000000 -19.052800 9.283913 -5.156036 0.607428 2.916285 -5.924497 17.660156 1.331917 -2.020399 18.506688 0.673437 8.020147 10.484431 2.143200 -0.000000 -80.903200
-20.871332 16.479477 -0.201308 9.782438 82.966462 14.236518 -10.064760 0.781782 2.341647 -15.171165 7.231791 -42.052596 -1.724923 1.333745 32.697972 1.901076 10.480712 -4.346899 0.908700 0.000000 -18.354000 9.398905 -5.256798 0.648259 2.257004 -6.080139 17.088395 1.116835 -2.204795 20.192583 0.632291 8.822636 13.011253 2.774400 0.000000 -82.357300
-20.696291 16.504068 -0.212348 9.868569 82.720423 14.057842 -10.105993 0.865087 2.214223 -15.259356 7.895993 -41.327335 -1.744595 1.347193 33.056990 1.840765 10.154745 -4.728070 0.780200 -0.000000 -17.689901 9.529795 -5.341188 0.681149 1.568045 -6.286725 16.365646 0.884721 -2.376817 22.095399 0.553644 9.647889 15.640659 3.507000 0.000000 -83.247800
-20.524032 16.528173 -0.223986 9.898772 82.465102 13.812686 -10.146518 0.951675 2.076521 -15.338320 8.602526 -40.559182 -1.775327 1.356271 33.362265 1.775892 9.780566 -5.193335 0.637600 0.000000 -17.122600 9.666462 -5.400622 0.706926 0.899187 -6.516222 15.527906 0.644358 -2.527610 24.163436 0.435816 10.418241 18.330205 4.303900 0.000000 -83.475900
-20.355325 16.551409 -0.235722 9.997018 82.219460 13.629714 -10.183467 1.036746 1.931802 -15.417069 9.315713 -39.753029 -1.812020 1.359491 33.621419 1.712814 9.400594 -5.718197 0.491400 0.000000 -16.667601 9.814806 -5.435270 0.720888 0.233980 -6.793942 14.560208 0.404003 -2.655352 26.407070 0.281282 11.109875 21.036460 5.137000 -0.000000 -82.892500
-20.190301 16.573405 -0.247653 10.091108 81.993520 13.437169 -10.219020 1.119733 1.783976 -15.476651 10.018666 -38.922095 -1.850425 1.359903 33.855029 1.655285 9.038389 -6.286279 0.347000 0.000000 -16.361500 9.964498 -5.440381 0.721043 -0.386164 -7.101257 13.505582 0.175919 -2.757380 28.768036 0.097704 11.633203 23.666208 5.927699 -0.000000 -81.453900
-20.029566 16.594133 -0.259310 10.277559 81.801960 13.337411 -10.250458 1.197067 1.637803 -15.525719 10.674512 -38.068727 -1.886187 1.355747 34.062221 1.608496 8.731180 -6.874290 0.210300 0.000000 -16.211000 10.118613 -5.419035 0.703427 -0.973037 -7.453428 12.355965 -0.032074 -2.838252 31.245032 -0.106452 11.928732 26.131957 6.600900 0.000000 -79.157100
-19.872871 16.613389 -0.270776 10.503758 81.653421 13.275380 -10.279583 1.269042 1.497466 -15.550470 11.266162 -37.196733 -1.916615 1.349127 34.253769 1.574171 8.491838 -7.472724 0.081200 0.000000 -16.216100 10.268384 -5.372036 0.664238 -1.502243 -7.844107 11.151521 -0.213873 -2.903486 33.783804 -0.318890 11.912370 28.316282 7.056400 -0.000001 -76.176299
-19.720346 16.631450 -0.281771 10.812782 81.550485 13.300450 -10.304604 1.334022 1.367239 -15.556587 11.768235 -36.307393 -1.939546 1.338738 34.421119 1.554763 8.340352 -8.064922 -0.039100 0.000000 -16.363000 10.414421 -5.304570 0.602673 -1.976605 -8.270520 9.887343 -0.370455 -2.962252 36.375360 -0.531580 11.514108 30.120260 7.208400 0.000000 -72.754301
-19.571673 16.648409 -0.292522 11.152261 81.492894 13.358133 -10.327319 1.393113 1.249817 -15.534353 12.173815 -35.400489 -1.954562 1.326101 34.565800 1.549569 8.274141 -8.647394 -0.153301 -0.000000 -16.622000 10.550738 -5.219839 0.517474 -2.381420 -8.723591 8.591184 -0.506189 -3.022158 38.978150 -0.736457 10.691500 31.450590 6.997800 0.000000 -69.231501
-19.426777 16.664506 -0.303080 11.499996 81.474722 13.428155 -10.348305 1.446953 1.147260 -15.482550 12.478752 -34.475776 -1.962060 1.311403 34.681022 1.557471 8.288161 -9.214514 -0.263400 -0.000000 -16.957900 10.675427 -5.121899 0.410828 -2.710749 -9.189259 7.270200 -0.628715 -3.089676 41.570638 -0.929564 9.434192 32.236750 6.407500 0.000000 -65.909700
-19.285163 16.680150 -0.313652 11.825509 81.483766 13.485448 -10.367965 1.496301 1.060574 -15.403200 12.686973 -33.536669 -1.963389 1.294496 34.756028 1.576790 8.372817 -9.761432 -0.370800 -0.000000 -17.335600 10.787555 -5.014445 0.288237 -2.957713 -9.643954 5.922634 -0.745881 -3.168995 44.137496 -1.108656 7.773338 32.424741 5.468800 -0.000000 -62.985400
-19.146404 16.695512 -0.324514 12.075784 81.508544 13.475458 -10.388296 1.543198 0.989288 -15.292905 12.812320 -32.584280 -1.960603 1.276622 34.788265 1.604319 8.507744 -10.289228 -0.477100 0.000000 -17.714900 10.884673 -4.899125 0.153577 -3.115753 -10.072078 4.558711 -0.864215 -3.261022 46.654313 -1.272171 5.782965 31.988963 4.261400 0.000000 -60.552300
-19.010460 16.710849 -0.335877 12.215093 81.534397 13.365548 -10.410130 1.589233 0.932040 -15.154854 12.872325 -31.622243 -1.955950 1.258045 34.770740 1.637300 8.675422 -10.796974 -0.582900 0.000000 -18.064299 10.966560 -4.777854 0.013382 -3.182231 -10.453026 3.176941 -0.987361 -3.364743 49.103181 -1.419241 3.566269 30.927604 2.897700 0.000000 -58.576300
-18.876927 16.726355 -0.347971 12.208627 81.547519 13.122232 -10.434377 1.636168 0.886493 -14.991700 12.888441 -30.654717 -1.951678 1.239319 34.699664 1.672785 8.857164 -11.284462 -0.687900 -0.000000 -18.359800 11.033127 -4.651565 -0.126004 -3.155814 -10.768955 1.778740 -1.115744 -3.476898 51.461568 -1.549539 1.241791 29.272805 1.505200 0.000000 -56.961000
-18.745479 16.742112 -0.360971 12.034511 81.537055 12.724283 -10.461404 1.685430 0.849488 -14.807419 12.883210 -29.685323 -1.949669 1.220800 34.573290 1.708275 9.037344 -11.752012 -0.791600 0.000000 -18.586000 11.085151 -4.520928 -0.258644 -3.038456 -11.006429 0.366283 -1.246508 -3.592933 53.705803 -1.663340 -1.071754 27.087873 0.205700 -0.000000 -55.544700
-18.616204 16.758205 -0.374942 11.679785 81.495061 12.159086 -10.491256 1.738021 0.817375 -14.605131 12.877893 -28.717361 -1.951264 1.202809 34.392074 1.741784 9.204025 -12.199316 -0.893000 0.000000 -18.737300 11.123842 -4.386038 -0.379209 -2.833199 -11.154965 -1.056776 -1.374355 -3.707394 55.811323 -1.761919 -3.270913 24.468873 -0.903401 -0.000000 -54.165800
-18.488856 16.774593 -0.389958 11.145875 81.418113 11.426731 -10.523551 1.794229 0.786097 -14.387303 12.891318 -27.752724 -1.957170 1.185491 34.158315 1.772002 9.349955 -12.626256 -0.991100 -0.000000 -18.816800 11.150900 -4.246814 -0.483706 -2.545338 -11.209406 -2.484601 -1.492744 -3.814987 57.755536 -1.847254 -5.275872 21.535484 -1.759900 0.000000 -52.661599
-18.363433 16.791208 -0.405943 10.449325 81.308232 10.544071 -10.557395 1.853630 0.752553 -14.157027 12.935584 -26.794782 -1.967328 1.168762 33.877171 1.798385 9.472585 -13.032197 -1.085200 -0.000000 -18.834000 11.168457 -4.103387 -0.569233 -2.182745 -11.171844 -3.914673 -1.595246 -3.911292 59.521046 -1.921141 -7.031230 18.418071 -2.339400 -0.000000 -50.895900
-18.239950 16.808006 -0.422765 9.612286 81.171057 9.529794 -10.592016 1.915019 0.713050 -13.914486 13.018806 -25.841117 -1.981191 1.152463 33.552612 1.820857 9.572860 -13.416734 -1.174499 0.000000 -18.803200 11.178234 -3.955404 -0.634999 -1.752525 -11.046053 -5.337203 -1.676999 -3.992982 61.089661 -1.986026 -8.513726 15.263032 -2.656400 0.000000 -48.872500
-18.118564 16.824806 -0.440245 8.669058 81.015664 8.417236 -10.626370 1.977124 0.665813 -13.661556 13.141250 -24.892552 -1.997837 1.136445 33.191869 1.839936 9.654671 -13.780086 -1.259100 0.000000 -18.739300 11.181926 -3.803023 -0.681958 -1.265858 -10.845574 -6.748683 -1.735352 -4.058594 62.453342 -2.041633 -9.712097 12.185897 -2.746700 -0.000001 -46.575801
-17.999001 16.841446 -0.458147 7.655089 80.854113 7.240088 -10.659534 2.038237 0.609980 -13.399656 13.297314 -23.947299 -2.016011 1.120362 32.801051 1.856478 9.723786 -14.122905 -1.339100 0.000000 -18.656700 11.180742 -3.646892 -0.712255 -0.733774 -10.586260 -8.143574 -1.769540 -4.108173 63.605918 -2.086465 -10.629182 9.285355 -2.660700 0.000000 -44.041200
